<svg xmlns="http://www.w3.org/2000/svg" xmlns:xlink="http://www.w3.org/1999/xlink" x="0px" y="0px" viewBox="0 0 385 105" style="enable-background:new 0 0 385 105;" xml:space="preserve"><style type="text/css">	.st0{display:none;}	.st1{display:inline;fill:#202020;}	.st2{fill:none;}	.st3{fill:#F3CB45;}</style><g id="Capa_2" class="st0">	<rect x="1" y="-22" class="st1" width="500" height="150"></rect></g><g id="Capa_1">	<g>		<rect x="134.03" y="8.46" class="st2" width="357.22" height="54.06"></rect>		<path class="st3" d="M177.77,36.6c-1.86,10.08-9.96,15.96-20.28,15.96c-11.94,0-21.36-9.18-21.36-21c0-11.76,9.42-21,21.36-21   c9.9,0,18.3,5.88,20.22,15.42l-9.72,2.28c-1.26-5.82-5.34-8.64-10.5-8.64c-6.36,0-11.46,5.1-11.46,11.94s5.1,12,11.46,12   c5.1,0,9.18-2.88,10.56-8.88L177.77,36.6z"></path>		<path class="st3" d="M208.25,51.66l-12.12-13.8h-2.88v13.8h-9.9v-40.2h20.34c8.7,0,14.46,5.28,14.46,13.14   c0,6.6-4.08,11.34-10.56,12.78l12.6,14.28H208.25z M202.61,29.58c3.54,0,5.82-1.92,5.82-4.86c0-2.88-2.28-4.8-5.82-4.8h-9.36v9.66   H202.61z"></path>		<path class="st3" d="M244.43,51.66h-10.08V39.18l-15.54-27.72h10.8l9.9,17.64l9.78-17.64h11.04l-15.9,27.6V51.66z"></path>		<path class="st3" d="M284.03,11.46c9.06,0,14.76,5.58,14.76,13.86c0,8.46-5.88,14.04-15.18,14.04h-9.48v12.3h-9.9v-40.2H284.03z    M282.89,31.08c3.84,0,6.18-2.22,6.18-5.64c0-3.24-2.34-5.52-6.18-5.52h-8.76v11.16H282.89z"></path>		<path class="st3" d="M324.65,20.1v31.56h-9.84V20.1h-13.02v-8.64h35.88v8.64H324.65z"></path>		<path class="st3" d="M382.19,31.62c0,11.7-9.42,20.94-21.42,20.94c-12,0-21.42-9.24-21.42-20.94c0-11.76,9.42-21.06,21.42-21.06   C372.77,10.56,382.19,19.86,382.19,31.62z M372.29,31.62c0-6.9-4.98-12-11.52-12c-6.54,0-11.52,5.1-11.52,12   c0,6.84,4.98,11.88,11.52,11.88C367.31,43.5,372.29,38.46,372.29,31.62z"></path>	</g>	<path class="st3" d="M69.55,103.82l25.4-28.32H74.72l-23.75,26.48c-1.04,1.16-2.41,1.79-3.87,1.79c-1.46,0-2.83-0.64-3.87-1.79  L3.18,57.33c-2.18-2.43-2.18-6.37,0-8.8l41.7-46.48h14.01L13.24,52.93L47.1,90.68l19.74-22.01c1.07-1.19,3.33-2.2,4.93-2.2h39.48  c1.46,0,2.47,0.39,2.77,1.07s-0.08,1.69-1.06,2.78l-30.06,33.51H69.55z M34.64,54.95c-1-1.11-1-2.92,0-4.03L76.84,3.88  c1.04-1.16,2.41-1.79,3.87-1.79c1.46,0,2.83,0.64,3.87,1.79l29.27,32.63c0.97,1.09,1.36,2.1,1.05,2.78  c-0.3,0.68-1.31,1.07-2.77,1.07H67.77l8.11-9.04h19.3L80.7,15.19L46.84,52.93l12.14,13.53l-7,7.81L34.64,54.95z"></path>	<g>		<path class="st3" d="M142.56,79.79h10.99v5.04h-10.99v8.41h-5.78V69.78h18.13v5.08h-12.36V79.79z"></path>		<path class="st3" d="M178.69,82.67c0,6.73-4.17,11.11-10.4,11.11c-6.37,0-10.64-4.38-10.64-11.11V69.78h5.78v12.89   c0,3.57,1.93,5.78,4.87,5.78c2.77,0,4.62-2.21,4.62-5.78V69.78h5.78V82.67z"></path>		<path class="st3" d="M205.08,93.25h-4.76l-11.87-13.59v13.59h-5.78V69.78h4.8l11.87,14.01V69.78h5.74V93.25z"></path>		<path class="st3" d="M218.44,69.78c7.74,0,12.85,4.76,12.85,11.74s-5.11,11.74-12.85,11.74h-9.28V69.78H218.44z M218.23,88.24   c4.38,0,7.25-2.66,7.25-6.73c0-4.06-2.87-6.73-7.25-6.73h-3.29v13.45H218.23z"></path>		<path class="st3" d="M254.67,74.82v18.43h-5.74V74.82h-7.6v-5.04h20.93v5.04H254.67z"></path>		<path class="st3" d="M279.52,93.25l-7.07-8.06h-1.68v8.06h-5.78V69.78h11.87c5.08,0,8.44,3.08,8.44,7.67   c0,3.85-2.38,6.62-6.16,7.46l7.35,8.34H279.52z M276.23,80.36c2.07,0,3.4-1.12,3.4-2.84c0-1.68-1.33-2.8-3.4-2.8h-5.46v5.64   H276.23z"></path>		<path class="st3" d="M306.33,93.25l-1.65-4.27h-9.87l-1.65,4.27h-6.2l9.8-23.47h5.92l9.8,23.47H306.33z M299.75,76.29L296.77,84   h5.99L299.75,76.29z"></path>		<path class="st3" d="M323.79,69.78c7.74,0,12.85,4.76,12.85,11.74s-5.11,11.74-12.85,11.74h-9.28V69.78H323.79z M323.58,88.24   c4.38,0,7.25-2.66,7.25-6.73c0-4.06-2.87-6.73-7.25-6.73h-3.29v13.45H323.58z"></path>		<path class="st3" d="M358.16,93.25h-18.27V69.78h18.17v4.97h-12.39v4.41h11.38v4.7h-11.38v4.41h12.5V93.25z"></path>		<path class="st3" d="M376.29,93.25l-7.07-8.06h-1.68v8.06h-5.78V69.78h11.87c5.08,0,8.44,3.08,8.44,7.67   c0,3.85-2.38,6.62-6.16,7.46l7.35,8.34H376.29z M373,80.36c2.07,0,3.4-1.12,3.4-2.84c0-1.68-1.33-2.8-3.4-2.8h-5.46v5.64H373z"></path>	</g>	<g>	</g>	<g>	</g>	<g>	</g>	<g>	</g>	<g>	</g>	<g>	</g>	<g>	</g>	<g>	</g>	<g>	</g>	<g>	</g>	<g>	</g>	<g>	</g>	<g>	</g>	<g>	</g>	<g>	</g>	<g>	</g></g></svg>