<svg xmlns:xlink="http://www.w3.org/1999/xlink" xmlns="http://www.w3.org/2000/svg" width="80" height="33" viewBox="0 0 80 33">
    <defs fill="#ffffff">
        <path id="a" d="M0 .332h32.498v32.264H0z" fill="#ffffff"/>
    </defs>
    <g fill="none" fill-rule="evenodd">
        <path fill="#ffffff" d="M52.184 20.812c.235.203.364.501.35.81 0 .874-.51 1.312-1.528 1.312h-8.754a1.218 1.218 0 0 1-1.295-1.26c.001-.449.188-.877.518-1.183l7.226-7.713h-5.594a1.544 1.544 0 0 1-1.023-.296 1.033 1.033 0 0 1-.35-.836c0-.857.51-1.286 1.528-1.286h8.365a1.234 1.234 0 0 1 1.295 1.26c-.01.454-.196.887-.518 1.209l-7.2 7.688h5.957c.365-.025.728.08 1.023.295M56.807 15.503h5.905a3.457 3.457 0 0 0-.674-2.378 2.46 2.46 0 0 0-1.968-.81c-1.83 0-2.918 1.063-3.263 3.188m8.352 1.427c-.202.199-.48.306-.764.295h-7.692a3.69 3.69 0 0 0 .971 2.572c.689.617 1.6.932 2.526.874a5.77 5.77 0 0 0 1.644-.219 6.282 6.282 0 0 0 1.464-.655c.197-.113.419-.175.647-.18a.817.817 0 0 1 .686.322c.168.226.255.502.246.783a1.49 1.49 0 0 1-.647 1.235 5.897 5.897 0 0 1-1.852.848 8.573 8.573 0 0 1-2.396.334 7.226 7.226 0 0 1-3.392-.758 5.387 5.387 0 0 1-2.24-2.147 6.431 6.431 0 0 1-.79-3.24 7.81 7.81 0 0 1 .802-3.587 6.015 6.015 0 0 1 2.253-2.468 6.223 6.223 0 0 1 3.315-.887 5.256 5.256 0 0 1 4.08 1.569 6.391 6.391 0 0 1 1.437 4.474c.02.307-.088.608-.298.835M78.489 11.196a4.694 4.694 0 0 1 1.1 3.381c0 .326-.008.575-.026.746l-.518 6.222c-.011.43-.198.84-.517 1.132-.331.281-.757.428-1.192.41a1.582 1.582 0 0 1-1.165-.41 1.372 1.372 0 0 1-.363-1.132l.518-6.093c.138-1.903-.622-2.855-2.279-2.855a2.92 2.92 0 0 0-2.227.849 3.792 3.792 0 0 0-.932 2.366l-.493 5.733c-.011.43-.198.84-.518 1.132-.33.281-.756.428-1.19.41a1.537 1.537 0 0 1-1.153-.41 1.468 1.468 0 0 1-.376-1.132l.829-9.976c.002-.415.192-.807.518-1.067a1.87 1.87 0 0 1 1.217-.399c.4-.024.794.116 1.088.386.264.273.38.656.31 1.029l-.026.488a4.328 4.328 0 0 1 1.736-1.44 5.626 5.626 0 0 1 2.434-.514 4.274 4.274 0 0 1 3.225 1.144"/>
        <g transform="translate(0 .127)">
            <mask id="b" fill="#fff">
                <use xlink:href="#a" fill="#ffffff"/>
            </mask>
            <path fill="#ffffff" d="M30.95 9.69a4.727 4.727 0 0 0-6.023-1.65 4.592 4.592 0 0 0-2.038 6.194 4.638 4.638 0 0 0 3.333 2.452c-.175 5.468-4.781 9.76-10.29 9.588-5.35-.169-9.613-4.498-9.662-9.812-.01-4.094 2.555-7.76 6.424-9.18a1.56 1.56 0 0 0 1-1.806l-.01-.048a1.555 1.555 0 0 1 1.394-1.892 13.083 13.083 0 0 1 2.624.026A1.586 1.586 0 0 0 19.46 2.08 1.625 1.625 0 0 0 17.966.422a16.64 16.64 0 0 0-1.717-.09C7.275.332 0 7.555 0 16.464c0 8.91 7.275 16.132 16.249 16.132 8.974 0 16.249-7.222 16.249-16.132 0-1.577-.32-4.977-1.548-6.773" mask="url(#b)"/>
        </g>
        <path fill="#ffffff" d="M22.378 1.684c.93 0 1.683.748 1.683 1.671s-.754 1.671-1.683 1.671c-.93 0-1.684-.748-1.684-1.671s.754-1.671 1.684-1.671"/>
    </g>
</svg>